<?xml version="1.0" encoding="iso-8859-1"?>
<!-- Generator: Adobe Illustrator 16.0.0, SVG Export Plug-In . SVG Version: 6.00 Build 0)  -->
<!DOCTYPE svg PUBLIC "-//W3C//DTD SVG 1.1//EN" "http://www.w3.org/Graphics/SVG/1.1/DTD/svg11.dtd">
<svg version="1.1" id="Capa_1" xmlns="http://www.w3.org/2000/svg" xmlns:xlink="http://www.w3.org/1999/xlink" x="0px" y="0px"
	 width="458.142px" height="458.142px" viewBox="0 0 458.142 458.142" style="enable-background:new 0 0 458.142 458.142;"
	 xml:space="preserve">
<g>
	<g>
		<path d="M158.713,192.806c25.919,0,47.008-21.087,47.008-47.008c0-25.92-21.089-47.001-47.008-47.001
			c-25.921,0-47.008,21.082-47.008,47.001C111.705,171.724,132.797,192.806,158.713,192.806z M158.713,109.558
			c19.99,0,36.257,16.26,36.257,36.25c0,19.992-16.262,36.257-36.257,36.257c-19.998,0-36.258-16.26-36.258-36.257
			C122.455,125.818,138.721,109.558,158.713,109.558z"/>
		<path d="M148.064,164.891c1.047,1.048,2.423,1.575,3.8,1.575c1.375,0,2.75-0.527,3.801-1.575l25.56-25.559
			c2.102-2.103,2.102-5.499,0-7.602c-2.104-2.102-5.499-2.102-7.601,0l-21.76,21.759l-9.375-9.375c-2.102-2.1-5.499-2.1-7.601,0
			c-2.102,2.097-2.102,5.499,0,7.601L148.064,164.891z"/>
		<path d="M216.679,140.907h99.065c2.977,0,5.374-2.41,5.374-5.375c0-2.968-2.397-5.375-5.374-5.375h-99.065
			c-2.966,0-5.375,2.407-5.375,5.375C211.304,138.498,213.713,140.907,216.679,140.907z"/>
		<path d="M216.679,163.833h99.065c2.977,0,5.374-2.409,5.374-5.375c0-2.968-2.397-5.375-5.374-5.375h-99.065
			c-2.966,0-5.375,2.407-5.375,5.375C211.304,161.424,213.713,163.833,216.679,163.833z"/>
		<path d="M158.713,287.657c25.919,0,47.008-21.082,47.008-47.004c0-25.92-21.089-47.007-47.008-47.007
			c-25.921,0-47.008,21.087-47.008,47.007C111.705,266.575,132.797,287.657,158.713,287.657z M158.713,204.407
			c19.99,0,36.257,16.26,36.257,36.264c0,19.989-16.262,36.246-36.257,36.246c-19.998,0-36.258-16.257-36.258-36.246
			C122.455,220.667,138.721,204.407,158.713,204.407z"/>
		<path d="M148.064,259.74c1.047,1.039,2.423,1.576,3.8,1.576c1.375,0,2.75-0.537,3.801-1.576l25.56-25.554
			c2.102-2.11,2.102-5.499,0-7.611c-2.104-2.113-5.499-2.103-7.601,0l-21.76,21.749l-9.375-9.37c-2.102-2.105-5.499-2.105-7.601,0
			c-2.102,2.099-2.102,5.49,0,7.596L148.064,259.74z"/>
		<path d="M216.679,235.76h99.065c2.977,0,5.374-2.402,5.374-5.375c0-2.974-2.397-5.375-5.374-5.375h-99.065
			c-2.966,0-5.375,2.407-5.375,5.375C211.304,233.352,213.713,235.76,216.679,235.76z"/>
		<path d="M216.679,258.68h99.065c2.977,0,5.374-2.404,5.374-5.376c0-2.971-2.397-5.375-5.374-5.375h-99.065
			c-2.966,0-5.375,2.404-5.375,5.375C211.304,256.276,213.713,258.68,216.679,258.68z"/>
		<path d="M158.713,382.519c25.919,0,47.008-21.087,47.008-47.009c0-25.921-21.089-47.002-47.008-47.002
			c-25.921,0-47.008,21.081-47.008,47.002C111.705,361.432,132.797,382.519,158.713,382.519z M158.713,299.257
			c19.99,0,36.257,16.264,36.257,36.253c0,19.99-16.262,36.258-36.257,36.258c-19.998,0-36.258-16.257-36.258-36.258
			C122.455,315.521,138.721,299.257,158.713,299.257z"/>
		<path d="M148.064,354.597c1.047,1.045,2.423,1.574,3.8,1.574c1.375,0,2.75-0.529,3.801-1.574l25.56-25.564
			c2.102-2.1,2.102-5.497,0-7.601c-2.104-2.101-5.499-2.101-7.601,0l-21.76,21.763l-9.375-9.375c-2.102-2.099-5.499-2.099-7.601,0
			c-2.102,2.105-2.102,5.497,0,7.602L148.064,354.597z"/>
		<path d="M216.679,330.618h99.065c2.977,0,5.374-2.415,5.374-5.376c0-2.971-2.397-5.375-5.374-5.375h-99.065
			c-2.966,0-5.375,2.404-5.375,5.375C211.304,328.203,213.713,330.618,216.679,330.618z"/>
		<path d="M216.679,353.538h99.065c2.977,0,5.374-2.415,5.374-5.376c0-2.971-2.397-5.375-5.374-5.375h-99.065
			c-2.966,0-5.375,2.404-5.375,5.375C211.304,351.123,213.713,353.538,216.679,353.538z"/>
		<path d="M72.317,433.003c0,2.966,2.41,5.374,5.376,5.374h61.421c28.339,13.098,58.591,19.765,89.951,19.765
			c31.36,0,61.607-6.667,89.959-19.765h61.412c2.961,0,5.376-2.408,5.376-5.374v-42.925c37.46-39.974,58.106-92.001,58.106-146.779
			c0-54.788-20.646-106.807-58.106-146.784V53.594c0-2.967-2.415-5.375-5.376-5.375h-61.412
			c-21.071-9.729-43.517-15.89-66.803-18.389C250.237,13.057,235.947,0,218.648,0c-18.444,0-33.458,14.837-33.801,33.199
			c-15.869,3.329-31.232,8.331-45.728,15.024H77.693c-2.966,0-5.376,2.41-5.376,5.376v42.922
			c-37.459,39.972-58.094,91.99-58.094,146.778c0,54.771,20.635,106.806,58.094,146.779V433.003z M218.654,10.745
			c12.724,0,23.079,10.355,23.068,23.024c-0.01,0.113-0.041,0.614-0.041,0.725c-0.064,1.871-0.327,3.667-0.767,5.329
			c-0.672,2.467,0.515,5.068,2.803,6.204c0,0,0.462,0.231,1.296,0.643c0.562,0.276,1.271,0.636,2.127,1.061
			c0.85,0.423,1.847,0.913,2.95,1.462c4.955,2.446,12.083,5.961,18.804,9.229c18.971,9.237,19.391,9.237,20.965,9.237
			c10.752,0,19.971,7.361,22.438,17.706H125.009c2.457-10.345,11.664-17.706,22.42-17.706c0.2,0,0.415,0,0.667-0.019
			c0.252-0.016,0.554-0.052,0.924-0.129c0.183-0.036,0.388-0.078,0.614-0.139c0.293-0.073,0.65-0.178,1.031-0.294
			c2.796-0.877,8.079-3.082,19.25-8.683l0.005-0.005c1.269-0.635,2.544-1.282,3.806-1.924c0.092-0.05,0.182-0.092,0.268-0.139
			c1.178-0.604,2.339-1.194,3.478-1.784c0.103-0.056,0.194-0.103,0.296-0.158c2.354-1.215,4.591-2.385,6.643-3.467
			c0.168-0.087,0.312-0.165,0.473-0.252c0.84-0.441,1.651-0.872,2.41-1.273c0.344-0.184,0.65-0.346,0.979-0.523
			c0.514-0.275,1.016-0.543,1.478-0.784c1.758-0.935,3.155-1.688,3.985-2.135c0.016-0.01,0.026-0.026,0.047-0.039
			c1.704-0.902,2.898-2.637,2.898-4.703c0-0.438-0.179-0.822-0.276-1.233c-0.01-0.056,0-0.11-0.016-0.163
			c-0.268-1-0.473-2.026-0.611-3.073c-0.129-0.959-0.21-1.932-0.21-2.922C195.577,21.1,205.929,10.745,218.654,10.745z
			 M113.833,91.893c0.543,2.392,2.585,4.216,5.139,4.216H317.9c0.147,0,0.285,0,0.441,0c0.379,0,0.745-0.092,1.124-0.174
			c0.131-0.026,0.263-0.021,0.398-0.057c0.547-0.164,1.066-0.399,1.555-0.738c1.112-0.779,1.867-1.944,2.146-3.247h7.733v301.739
			h-225.83V91.893H113.833z M83.069,58.958h52.707c-1.494,0.549-2.924,1.227-4.318,1.967c-0.375,0.204-0.729,0.435-1.094,0.65
			c-1.108,0.646-2.168,1.349-3.189,2.118c-0.386,0.291-0.77,0.57-1.14,0.876c-1.17,0.958-2.283,1.984-3.323,3.093
			c-0.102,0.107-0.22,0.201-0.317,0.312c-1.115,1.229-2.122,2.562-3.047,3.955c-0.252,0.375-0.473,0.775-0.709,1.161
			c-0.666,1.092-1.268,2.215-1.811,3.386c-0.204,0.441-0.415,0.876-0.604,1.328c-0.445,1.082-0.815,2.194-1.149,3.328h-14.981
			c-2.966,0-5.375,2.407-5.375,5.375v312.489c0,2.972,2.41,5.376,5.375,5.376h236.611c2.961,0,5.376-2.404,5.376-5.376V86.518
			c0-2.966-2.415-5.375-5.376-5.375h-14.431c-0.141-0.488-0.319-0.975-0.482-1.458c-0.162-0.514-0.372-0.999-0.572-1.503
			c-0.473-1.184-1.013-2.328-1.586-3.436c-0.268-0.488-0.53-0.974-0.808-1.451c-0.735-1.237-1.554-2.412-2.446-3.539
			c-0.18-0.23-0.336-0.488-0.525-0.713c-1.091-1.317-2.304-2.533-3.58-3.667c-0.346-0.304-0.713-0.57-1.081-0.858
			c-0.986-0.809-2.016-1.559-3.098-2.255c-0.473-0.299-0.933-0.585-1.416-0.858c-1.135-0.651-2.316-1.225-3.528-1.743
			c-0.398-0.17-0.777-0.37-1.188-0.525c-0.146-0.055-0.277-0.136-0.418-0.184H317.9h57.156v39.629v289.402v39.634h-57.166H140.232
			H83.069v-39.634V98.592V58.958z"/>
		<path d="M218.654,45.315c5.868,0,10.642-4.78,10.642-10.643c0-5.864-4.779-10.644-10.642-10.644
			c-5.864,0-10.644,4.774-10.644,10.644C208.01,40.548,212.79,45.315,218.654,45.315z M218.654,34.565v5.375l-0.108-5.268
			C218.546,34.62,218.601,34.565,218.654,34.565z"/>
	</g>
</g>
<g>
</g>
<g>
</g>
<g>
</g>
<g>
</g>
<g>
</g>
<g>
</g>
<g>
</g>
<g>
</g>
<g>
</g>
<g>
</g>
<g>
</g>
<g>
</g>
<g>
</g>
<g>
</g>
<g>
</g>
</svg>
